<svg width="27" height="15" viewBox="0 0 27 15" fill="none" xmlns="http://www.w3.org/2000/svg">
<path d="M7.14443 9.16869C6.58875 9.16869 6.11246 8.97023 5.71555 8.57332C5.31863 8.17641 5.12018 7.70011 5.12018 7.14443C5.12018 6.58875 5.31863 6.11246 5.71555 5.71555C6.11246 5.31863 6.58875 5.12018 7.14443 5.12018C7.70011 5.12018 8.17641 5.31863 8.57332 5.71555C8.97023 6.11246 9.16869 6.58875 9.16869 7.14443C9.16869 7.70011 8.97023 8.17641 8.57332 8.57332C8.17641 8.97023 7.70011 9.16869 7.14443 9.16869ZM7.14443 14.2889C5.15987 14.2889 3.47299 13.5943 2.08379 12.2051C0.694598 10.8159 0 9.129 0 7.14443C0 5.15987 0.694598 3.47299 2.08379 2.08379C3.47299 0.694598 5.15987 0 7.14443 0C8.57332 0 9.82359 0.337376 10.8953 1.01213C11.9669 1.68688 12.8104 2.70893 13.4256 4.07828H23.6659C23.785 4.07828 23.8942 4.09813 23.9934 4.13782C24.0926 4.17751 24.1918 4.24697 24.2911 4.3462L26.7321 6.78721C26.8313 6.88644 26.9008 6.99063 26.9405 7.09978C26.9802 7.20893 27 7.32304 27 7.44212C27 7.56119 26.9752 7.67034 26.9256 7.76957C26.876 7.8688 26.8015 7.96803 26.7023 8.06725L22.9813 11.4906C22.9019 11.57 22.8126 11.6295 22.7133 11.6692C22.6141 11.7089 22.5149 11.7288 22.4157 11.7288C22.3164 11.7288 22.2222 11.7189 22.1329 11.699C22.0436 11.6792 21.9493 11.6395 21.8501 11.5799L19.796 10.0915L17.7122 11.6097C17.6329 11.6692 17.5485 11.7089 17.4592 11.7288C17.3699 11.7486 17.2756 11.7585 17.1764 11.7585C17.0772 11.7585 16.9829 11.7437 16.8936 11.7139C16.8043 11.6841 16.72 11.6395 16.6406 11.5799L14.9438 10.2106H13.4256C12.9294 11.4013 12.1505 12.3787 11.0888 13.1428C10.027 13.9068 8.71224 14.2889 7.14443 14.2889ZM7.14443 12.5028C8.29548 12.5028 9.35722 12.1207 10.3297 11.3567C11.3021 10.5926 11.9272 9.61521 12.2051 8.42448H15.5987L17.2062 9.76406C17.1863 9.76406 17.1863 9.76406 17.2062 9.76406L19.8258 7.88864L22.2668 9.73429L24.7971 7.38258L23.2789 5.86439H12.2051C11.9669 4.75303 11.3716 3.79548 10.419 2.99173C9.46637 2.18798 8.37486 1.78611 7.14443 1.78611C5.65601 1.78611 4.39085 2.30706 3.34895 3.34895C2.30706 4.39085 1.78611 5.65601 1.78611 7.14443C1.78611 8.63286 2.30706 9.89802 3.34895 10.9399C4.39085 11.9818 5.65601 12.5028 7.14443 12.5028Z" fill="#DEDEDE"/>
</svg>
