<svg width="32" height="31" viewBox="0 0 32 31" fill="none" xmlns="http://www.w3.org/2000/svg">
<path d="M2.3461 18.0274L24.4874 18.3268L17.1162 26.5069C16.9063 26.738 16.7386 27.014 16.623 27.3192C16.5074 27.6243 16.4461 27.9524 16.4426 28.2846C16.4391 28.6167 16.4936 28.9464 16.6028 29.2546C16.712 29.5627 16.8738 29.8432 17.0788 30.08C17.4888 30.5542 18.0472 30.8249 18.6321 30.8328C19.2171 30.8407 19.781 30.5852 20.2008 30.1222L29.8126 19.4306C30.6541 18.5024 31.1372 17.2328 31.1561 15.9003C31.1592 14.5763 30.7031 13.3043 29.8867 12.3598L20.5013 1.4114C20.2973 1.17564 20.0545 0.987864 19.7866 0.858777C19.5187 0.729692 19.2311 0.661829 18.9402 0.659063C18.6493 0.656298 18.3607 0.718686 18.091 0.842662C17.8212 0.966637 17.5757 1.14978 17.3682 1.38162C17.1608 1.61346 16.9955 1.88947 16.8819 2.19388C16.7684 2.4983 16.7086 2.82516 16.7062 3.1558C16.7038 3.48644 16.7587 3.81438 16.8678 4.12091C16.9769 4.42744 17.138 4.70655 17.342 4.94231L24.5401 13.2942L2.39879 12.9948C1.81157 12.9869 1.24562 13.2444 0.825446 13.7107C0.405278 14.1769 0.165305 14.8138 0.158319 15.4812C0.151332 16.1485 0.377904 16.7917 0.788192 17.2692C1.19848 17.7467 1.75888 18.0195 2.3461 18.0274Z" fill="white"/>
</svg>
