<svg width="31" height="31" viewBox="0 0 31 31" fill="none" xmlns="http://www.w3.org/2000/svg">
<path d="M28.7857 12.5843H6.64286L13.9279 4.30514C14.1354 4.07121 14.3001 3.79288 14.4125 3.48623C14.525 3.17957 14.5828 2.85066 14.5828 2.51846C14.5828 2.18625 14.525 1.85734 14.4125 1.55068C14.3001 1.24403 14.1354 0.965706 13.9279 0.731768C13.513 0.263075 12.9518 0 12.3668 0C11.7818 0 11.2206 0.263075 10.8057 0.731768L1.30643 11.5526C0.47477 12.4921 0.00494403 13.7681 0 15.1008C0.010776 16.4247 0.480156 17.6905 1.30643 18.6238L10.8057 29.4446C11.0122 29.6776 11.257 29.8621 11.5262 29.9875C11.7954 30.113 12.0837 30.1769 12.3746 30.1758C12.6656 30.1746 12.9535 30.1083 13.2219 29.9807C13.4903 29.8531 13.7339 29.6666 13.9389 29.432C14.1439 29.1974 14.3063 28.9192 14.4167 28.6132C14.527 28.3073 14.5833 27.9797 14.5823 27.649C14.5813 27.3184 14.523 26.9912 14.4107 26.6861C14.2984 26.3811 14.1343 26.1042 13.9279 25.8712L6.64286 17.6172H28.7857C29.373 17.6172 29.9362 17.3521 30.3515 16.8802C30.7667 16.4082 31 15.7682 31 15.1008C31 14.4334 30.7667 13.7933 30.3515 13.3214C29.9362 12.8494 29.373 12.5843 28.7857 12.5843Z" fill="white"/>
</svg>
