<svg width="29" height="31" viewBox="0 0 29 31" fill="none" xmlns="http://www.w3.org/2000/svg">
<path d="M27.5002 6.5H2" stroke="black" stroke-width="2" stroke-linecap="round"/>
<path d="M11 14L11.75 21.5" stroke="black" stroke-width="2" stroke-linecap="round"/>
<path d="M18.5 14L17.75 21.5" stroke="black" stroke-width="2" stroke-linecap="round"/>
<path d="M6.5 6.5C6.58382 6.5 6.62573 6.5 6.66372 6.49904C7.89889 6.46774 8.98853 5.68236 9.40883 4.52048C9.42176 4.48473 9.43501 4.44499 9.46151 4.36546L9.60715 3.92856C9.73147 3.55562 9.79363 3.36914 9.87607 3.2108C10.205 2.5791 10.8136 2.14046 11.5169 2.02815C11.6932 2 11.8898 2 12.283 2H17.2171C17.6102 2 17.8069 2 17.9831 2.02815C18.6865 2.14046 19.295 2.5791 19.624 3.2108C19.7065 3.36914 19.7686 3.55562 19.8929 3.92856L20.0386 4.36546C20.065 4.44488 20.0783 4.48476 20.0912 4.52048C20.5115 5.68236 21.6011 6.46774 22.8364 6.49904C22.8743 6.5 22.9162 6.5 23 6.5" stroke="black" stroke-width="2"/>
<path d="M24.3102 20.5987C24.0447 24.581 23.9119 26.5723 22.6144 27.7861C21.3169 29 19.3213 29 15.3301 29H14.17C10.1788 29 8.18318 29 6.88566 27.7861C5.58815 26.5723 5.4554 24.581 5.18991 20.5987L4.5 10.25M25 10.25L24.7 14.75" stroke="black" stroke-width="2" stroke-linecap="round"/>
<path d="M27.5002 6.5H2" stroke="black" stroke-width="2" stroke-linecap="round"/>
<path d="M11 14L11.75 21.5" stroke="black" stroke-width="2" stroke-linecap="round"/>
<path d="M18.5 14L17.75 21.5" stroke="black" stroke-width="2" stroke-linecap="round"/>
<path d="M6.5 6.5C6.58382 6.5 6.62573 6.5 6.66372 6.49904C7.89889 6.46774 8.98853 5.68236 9.40883 4.52048C9.42176 4.48473 9.43501 4.44499 9.46151 4.36546L9.60715 3.92856C9.73147 3.55562 9.79363 3.36914 9.87607 3.2108C10.205 2.5791 10.8136 2.14046 11.5169 2.02815C11.6932 2 11.8898 2 12.283 2H17.2171C17.6102 2 17.8069 2 17.9831 2.02815C18.6865 2.14046 19.295 2.5791 19.624 3.2108C19.7065 3.36914 19.7686 3.55562 19.8929 3.92856L20.0386 4.36546C20.065 4.44488 20.0783 4.48476 20.0912 4.52048C20.5115 5.68236 21.6011 6.46774 22.8364 6.49904C22.8743 6.5 22.9162 6.5 23 6.5" stroke="black" stroke-width="2"/>
<path d="M24.3102 20.5987C24.0447 24.581 23.9119 26.5723 22.6144 27.7861C21.3169 29 19.3213 29 15.3301 29H14.17C10.1788 29 8.18318 29 6.88566 27.7861C5.58815 26.5723 5.4554 24.581 5.18991 20.5987L4.5 10.25M25 10.25L24.7 14.75" stroke="black" stroke-width="2" stroke-linecap="round"/>
</svg>
