<svg width="27" height="23" viewBox="0 0 27 23" fill="none" xmlns="http://www.w3.org/2000/svg">
<path d="M15.7487 8C14.4459 8.05663 13.4406 9.02458 13.5 10.1651C13.5594 9.02458 12.5541 8.05663 11.2513 8C9.94843 8.05663 8.9431 9.02458 9.0025 10.1651C9.0025 11.8684 11.5391 13.8962 12.8004 14.7841C13.2088 15.072 13.7912 15.072 14.1996 14.7841C15.4629 13.8962 17.9975 11.8684 17.9975 10.1651C18.0569 9.02458 17.0516 8.05663 15.7487 8Z" fill="#DEDEDE"/>
<path d="M26.5619 20.5515L21.916 16.0986C25.3922 11.6475 24.4448 5.33883 19.7999 2.00767C15.1549 -1.32349 8.57137 -0.415568 5.09513 4.03549C1.6189 8.48655 2.56628 14.7952 7.21125 18.1263C10.9428 20.8024 16.0683 20.8024 19.7999 18.1263L24.4468 22.5802C25.0309 23.1399 25.9778 23.1399 26.5619 22.5802C27.146 22.0205 27.146 21.1131 26.5619 20.5534V20.5515ZM6.06738 10.1031C6.06738 6.14665 9.41439 2.93937 13.5431 2.93937C17.6719 2.93937 21.0189 6.14665 21.0189 10.1031C21.0189 14.0594 17.6719 17.2667 13.5431 17.2667C9.41622 17.2625 6.07179 14.0577 6.06738 10.1031Z" fill="#DEDEDE"/>
</svg>
