<svg width="21" height="21" viewBox="0 0 21 21" fill="none" xmlns="http://www.w3.org/2000/svg">
<path d="M10.5 9.84375C9.05625 9.84375 7.875 9.38437 6.95625 8.46562C6.0375 7.54688 5.57812 6.36562 5.57812 4.92188C5.57812 3.47813 6.0375 2.29688 6.95625 1.37813C7.875 0.459375 9.05625 0 10.5 0C11.9438 0 13.125 0.459375 14.0437 1.37813C14.9625 2.29688 15.4219 3.47813 15.4219 4.92188C15.4219 6.36562 14.9625 7.54688 14.0437 8.46562C13.125 9.38437 11.9438 9.84375 10.5 9.84375ZM19.0312 20.3766H1.96875C1.42188 20.3766 0.957031 20.1852 0.574219 19.8023C0.191406 19.4195 0 18.9547 0 18.4078V17.2922C0 16.4609 0.207812 15.75 0.623437 15.1594C1.03906 14.5687 1.575 14.1203 2.23125 13.8141C3.69687 13.1578 5.10234 12.6656 6.44766 12.3375C7.79297 12.0094 9.14375 11.8453 10.5 11.8453C11.8562 11.8453 13.2016 12.0148 14.5359 12.3539C15.8703 12.693 17.2703 13.1797 18.7359 13.8141C19.4141 14.1203 19.9609 14.5687 20.3766 15.1594C20.7922 15.75 21 16.4609 21 17.2922V18.4078C21 18.9547 20.8086 19.4195 20.4258 19.8023C20.043 20.1852 19.5781 20.3766 19.0312 20.3766ZM1.96875 18.4078H19.0312V17.2922C19.0312 16.9422 18.9273 16.6086 18.7195 16.2914C18.5117 15.9742 18.2547 15.7391 17.9484 15.5859C16.5484 14.9078 15.2688 14.443 14.1094 14.1914C12.95 13.9398 11.7469 13.8141 10.5 13.8141C9.25313 13.8141 8.03906 13.9398 6.85781 14.1914C5.67656 14.443 4.39688 14.9078 3.01875 15.5859C2.7125 15.7391 2.46094 15.9742 2.26406 16.2914C2.06719 16.6086 1.96875 16.9422 1.96875 17.2922V18.4078ZM10.5 7.875C11.3531 7.875 12.0586 7.59609 12.6164 7.03828C13.1742 6.48047 13.4531 5.775 13.4531 4.92188C13.4531 4.06875 13.1742 3.36328 12.6164 2.80547C12.0586 2.24766 11.3531 1.96875 10.5 1.96875C9.64688 1.96875 8.94141 2.24766 8.38359 2.80547C7.82578 3.36328 7.54688 4.06875 7.54688 4.92188C7.54688 5.775 7.82578 6.48047 8.38359 7.03828C8.94141 7.59609 9.64688 7.875 10.5 7.875Z" fill="#DEDEDE"/>
</svg>
